<?xml version="1.0" encoding="utf-8"?>
<!-- Generator: Adobe Illustrator 22.1.0, SVG Export Plug-In . SVG Version: 6.00 Build 0)  -->
<svg version="1.1" id="Layer_1" xmlns="http://www.w3.org/2000/svg" xmlns:xlink="http://www.w3.org/1999/xlink" x="0px" y="0px" height="800px" width="800px"
	 viewBox="0 0 40 40" style="enable-background:new 0 0 40 40;" xml:space="preserve">
<style type="text/css">
	.st0{fill:none;}
	.st1{fill:#B11739;}
</style>
<g>
	<g>
		<polygon class="st0" points="17.9,27.4 18.2,25.4 17.7,25.4 17.6,26.2 17,26.2 17.1,25.4 16.6,25.4 16.2,27.4 16.8,27.4 
			16.9,26.6 17.5,26.6 17.4,27.4 		"/>
		<polygon class="st0" points="19.1,27 18.5,27 18.8,25.4 18.3,25.4 18,27.4 19,27.4 		"/>
		<g>
			<polygon class="st0" points="20.3,25.4 19,25.4 18.9,25.8 19.3,25.8 19.2,27 19.2,27 19.1,27.4 19.1,27.4 19.1,27.4 19.6,27.4 
				19.9,25.8 20.2,25.8 			"/>
			<polygon class="st0" points="21.7,25.4 21,26.6 20.7,25.4 20.4,25.4 20.3,25.4 20.3,25.9 20.7,27.4 21.1,27.4 22.2,25.4 			"/>
		</g>
	</g>
	<g>
		<path class="st0" d="M22,27.3c0,0.1-0.1,0.2-0.2,0.2s-0.2-0.1-0.2-0.2s0.1-0.2,0.2-0.2C21.9,27.1,22,27.1,22,27.3z"/>
		<path class="st0" d="M23,26.9c0,0.3-0.2,0.5-0.5,0.5s-0.4-0.3-0.3-0.5c0-0.3,0.2-0.5,0.5-0.5S23,26.6,23,26.9z M22.5,26.9
			c0,0.1,0,0.3,0.1,0.3s0.1-0.2,0.1-0.3s0-0.3-0.1-0.3S22.5,26.8,22.5,26.9z"/>
		<path class="st0" d="M23.5,26.4v0.1l0,0c0.1-0.1,0.1-0.2,0.3-0.2v0.3l0,0c-0.2,0-0.2,0.1-0.2,0.3l-0.1,0.5H23l0.2-1
			C23.2,26.4,23.5,26.4,23.5,26.4z"/>
		<path class="st0" d="M23.9,27.6c0,0.1,0,0.1,0.1,0.1s0.1-0.2,0.2-0.3v-0.1l0,0l-0.1,0.1H24c-0.1,0-0.2-0.1-0.2-0.2s0-0.2,0-0.4
			c0-0.2,0.1-0.6,0.4-0.6c0.1,0,0.2,0.1,0.2,0.1l0,0v-0.1h0.3l-0.2,1.1c0,0.3-0.2,0.4-0.5,0.4c-0.2,0-0.3-0.1-0.3-0.4L23.9,27.6
			L23.9,27.6z M24.2,26.9c0-0.1,0-0.3-0.1-0.3S24,26.8,24,26.9c0,0.1,0,0.3,0.1,0.3C24.2,27.2,24.2,27,24.2,26.9z"/>
	</g>
</g>
<path class="st1" d="M2.2,8h0.4c1.6,0,4.7,1.3,9,3.9c2.2,1.5,3.5,2.2,3.8,2.2h0.1l3-0.7l2-0.2c1.4,0,3,0.3,4.7,0.9h0.2
	c1.7-0.4,3.3-0.6,4.8-0.6c3.1,0,6.1,0.7,9.1,2.1c0.5,0.3,0.7,0.6,0.7,0.9l0,0c0,0.2-0.2,0.4-0.5,0.5c-0.3,0.2-0.5,0.3-0.6,0.3h-3
	c-3.6,0-6.7,1.1-9.4,3.4c-1.5,1.5-2.3,2.8-2.3,3.8c0,0.9,0.7,1.6,2.2,1.9c0.4,0.1,1.1,0.1,2.2,0.2c0.6,0,1.9-0.1,3.9-0.3h0.2
	c0.1,0,0.3,0.1,0.5,0.3c0.4,0,0.6,0.2,0.7,0.6v0.1c0,0.8-2.5,1.6-7.6,2.2c-0.8,0.1-1.7,0.1-2.8,0.2c-3.2,0-5.6-0.6-7.2-1.9
	c-1.7-1.1-2.7-2.3-3.2-3.6V24v-0.3c0-0.4,0.3-0.6,0.8-0.6l1.3,0.2c0.8,0,1.3-0.4,1.6-1.3l0.1-0.6v-0.3c0-1.7-1.5-3.9-4.4-6.6
	c-1.6-1.4-3.1-2.5-4.4-3.3C5.4,9.6,3.5,8.8,2.4,8.8c-1.1,0.1-1.6,0.6-1.6,1.5s0.8,2.3,2.3,4.2l3.6,3.8l0,0c-1-0.8-2.4-2.1-4.1-3.8
	C0.8,12.9,0,11.4,0,10C0,8.8,0.7,8.1,2.2,8L2.2,8z M19.6,15.8c0,0.7,0.7,1.2,2.1,1.4h0.8c1.1,0,2-0.2,2.7-0.7l0.1-0.3v-0.1
	c0-0.6-1-1.1-3.1-1.4l-1-0.1c-0.9,0-1.5,0.3-1.6,0.9V15.8L19.6,15.8z M8.5,19.1L8.5,19.1c1.1,0,2,0.5,2.7,1.6
	c0.2,0.3,0.3,0.6,0.3,0.9v0.1c0,0.5-0.4,0.8-1.2,0.9c-1,0-1.8-0.5-2.6-1.5c-0.2-0.3-0.3-0.6-0.3-0.8V20C7.4,19.5,7.8,19.2,8.5,19.1
	L8.5,19.1z"/>
</svg>
